# xmcd
#
# Track frame offsets:
#	150
#	18865
#	41890
#	52962
#	72157
#	83957
#	99795
#	123640
#	140697
#	159932
#	168595
#	181877
#
# Disc length: 2613 seconds
#
# Revision: 1
# Processed by: cddbd v1.5.1PL0 Copyright (c) Steve Scherf et al.
# Submitted via: audiograbber 1.83.01
#
DISCID=990a330c
DTITLE=Burundi - Music from the Heart of Africa
DYEAR=1974
DGENRE=
TTITLE0=Yes, I Love Micombero
TTITLE1=Bernadette
TTITLE2=bees
TTITLE3=Shepard's Flute
TTITLE4=Walking Tune
TTITLE5=Hail to Micombero
TTITLE6=Bernadette II
TTITLE7=Take Me Back To Mabayi
TTITLE8=Warriors of the Drum
TTITLE9=Master Alois
TTITLE10=Walking Troubardour
TTITLE11=Praise for Micombero
EXTD=
EXTT0=
EXTT1=
EXTT2=
EXTT3=
EXTT4=
EXTT5=
EXTT6=
EXTT7=
EXTT8=
EXTT9=
EXTT10=
EXTT11=
PLAYORDER=
